<svg width="43" height="46" viewBox="0 0 43 46" fill="none" xmlns="http://www.w3.org/2000/svg">
<path d="M11.6666 0.333334V29.188C10.7593 28.8522 9.80069 28.6758 8.83326 28.6667C7.15211 28.6667 5.50873 29.1652 4.11091 30.0992C2.71309 31.0332 1.62362 32.3607 0.98028 33.9139C0.336935 35.467 0.168607 37.1761 0.496581 38.8249C0.824555 40.4738 1.6341 41.9883 2.82285 43.1771C4.01159 44.3658 5.52615 45.1754 7.17499 45.5033C8.82383 45.8313 10.5329 45.663 12.0861 45.0196C13.6392 44.3763 14.9668 43.2868 15.9007 41.889C16.8347 40.4912 17.3333 38.8478 17.3333 37.1667V8.83333H37.1666V20.688C36.2593 20.3522 35.3007 20.1758 34.3333 20.1667C32.6521 20.1667 31.0087 20.6652 29.6109 21.5992C28.2131 22.5332 27.1236 23.8607 26.4803 25.4139C25.8369 26.967 25.6686 28.6761 25.9966 30.3249C26.3246 31.9738 27.1341 33.4883 28.3228 34.6771C29.5116 35.8658 31.0262 36.6754 32.675 37.0033C34.3238 37.3313 36.0329 37.163 37.5861 36.5196C39.1392 35.8763 40.4668 34.7868 41.4008 33.389C42.3347 31.9912 42.8333 30.3478 42.8333 28.6667V0.333334H11.6666Z" fill="#55752D"/>
</svg>
