<svg width="68" height="68" viewBox="0 0 68 68" fill="none" xmlns="http://www.w3.org/2000/svg">
<g id="flowbite:book-solid">
<path id="Vector" fill-rule="evenodd" clip-rule="evenodd" d="M16.9999 5.66667C15.497 5.66667 14.0557 6.26369 12.993 7.3264C11.9303 8.38911 11.3333 9.83045 11.3333 11.3333V53.8333C11.3333 56.0877 12.2288 58.2497 13.8228 59.8438C15.4169 61.4378 17.5789 62.3333 19.8333 62.3333H53.8333C54.5847 62.3333 55.3054 62.0348 55.8367 61.5035C56.3681 60.9721 56.6666 60.2515 56.6666 59.5C56.6666 58.7486 56.3681 58.0279 55.8367 57.4965C55.3054 56.9652 54.5847 56.6667 53.8333 56.6667H48.1666V51H53.8333C55.5333 51 56.6666 49.8667 56.6666 48.1667V11.3333C56.6666 9.83045 56.0696 8.38911 55.0069 7.3264C53.9441 6.26369 52.5028 5.66667 50.9999 5.66667H28.3333V51H42.4999V56.6667H19.8333C19.0818 56.6667 18.3611 56.3682 17.8298 55.8368C17.2984 55.3055 16.9999 54.5848 16.9999 53.8333C16.9999 53.0819 17.2984 52.3612 17.8298 51.8299C18.3611 51.2985 19.0818 51 19.8333 51H22.6666V5.66667H16.9999Z" fill="#F7F6F2"/>
</g>
</svg>
