<svg width="23" height="23" viewBox="0 0 23 23" fill="none" xmlns="http://www.w3.org/2000/svg">
<path d="M11.4999 3.83333C13.5124 3.83333 15.429 4.6 16.8665 6.0375C19.8374 9.00833 19.8374 13.8958 16.8665 16.8667C15.1415 18.6875 12.7457 19.3583 10.4457 19.0708L10.9249 17.1542C12.554 17.3458 14.279 16.7708 15.5249 15.525C17.729 13.3208 17.729 9.67916 15.5249 7.37916C14.4707 6.325 12.9374 5.75 11.4999 5.75V10.1583L6.70821 5.36666L11.4999 0.574997V3.83333ZM6.03738 16.8667C3.54571 14.375 3.16238 10.5417 4.88738 7.57083L6.32488 9.00833C5.27071 11.1167 5.65405 13.8 7.47488 15.525C7.95405 16.0042 8.52905 16.3875 9.19988 16.675L8.62488 18.5917C7.66655 18.2083 6.80405 17.6333 6.03738 16.8667Z" fill="#F7F6F2"/>
</svg>
